<svg fill="none" height="24" viewBox="0 0 24 24" width="24" xmlns="http://www.w3.org/2000/svg"><path d="M12.0418 2L12.3607 2.00507C14.9047 2.08503 17.2809 3.10822 19.086 4.90635L19.3075 5.13407C21.0471 6.97907 22.0009 9.37564 22 11.9179L21.9964 12.1815C21.8533 17.5242 17.4414 21.8283 12.0418 21.8283H12.0376L11.681 21.8218C10.1381 21.7663 8.62947 21.3551 7.27883 20.6219L2 22L3.41272 16.8645L3.24396 16.5613C2.48226 15.134 2.08287 13.5401 2.08344 11.9099C2.08577 6.44562 6.55267 2 12.0418 2ZM12.045 3.67385L11.8012 3.67737C7.34801 3.80608 3.7666 7.44994 3.76481 11.9105L3.77051 12.2212C3.82426 13.6681 4.25689 15.0701 5.03019 16.2943L5.22724 16.6058L4.39081 19.6454L7.52348 18.8276L7.82585 19.0062L8.1009 19.1616C9.30465 19.8114 10.6593 20.1538 12.0386 20.1546H12.0418L12.2854 20.1511C16.7351 20.0223 20.3166 16.3781 20.3186 11.9173L20.3138 11.631C20.2431 9.5371 19.3914 7.57878 17.8965 6.08956L17.6898 5.89046C16.1528 4.45967 14.1597 3.67472 12.045 3.67385ZM8.59189 7.27999C8.75879 7.27999 8.92599 7.2796 9.07199 7.28568C9.25051 7.29287 9.4481 7.30105 9.6357 7.70946C9.85847 8.19443 10.3453 9.40718 10.408 9.52984C10.4706 9.65251 10.5124 9.79573 10.4288 9.95941C10.3453 10.123 10.3036 10.2252 10.1786 10.3684C10.0533 10.5115 9.91526 10.688 9.8027 10.7979C9.67709 10.9201 9.54659 11.053 9.69279 11.2982C9.83889 11.5437 10.3416 12.3465 11.0864 12.9965C12.0437 13.8319 12.8504 14.0906 13.101 14.2136C13.3515 14.3363 13.4977 14.3159 13.6438 14.1519C13.79 13.9885 14.2698 13.4362 14.4368 13.1909C14.6039 12.9453 14.7709 12.9864 15.0006 13.068C15.2303 13.1497 16.462 13.7432 16.7125 13.8659C16.9631 13.9885 17.1301 14.0498 17.1927 14.1519C17.2553 14.2546 17.2553 14.7454 17.0466 15.3179C16.8378 15.8905 15.8148 16.4428 15.3555 16.4838C14.8962 16.5246 14.4656 16.6871 12.3493 15.8702C9.803 14.8872 8.19518 12.332 8.06988 12.1684C7.94478 12.0047 7.04697 10.8388 7.04697 9.63205C7.04697 8.42548 7.69418 7.83223 7.92388 7.5868C8.15338 7.34138 8.42489 7.27999 8.59189 7.27999Z" fill="white"></path></svg>